<svg width="243" height="216" viewBox="0 0 243 216" fill="none" xmlns="http://www.w3.org/2000/svg">
<path d="M195.894 0.138939C197.689 1.93003 198.502 3.03714 198.879 5.57166C198.86 6.32616 198.841 7.08065 198.821 7.85802C198.808 8.969 198.808 8.969 198.795 10.1024C198.615 13.1514 198.076 16.1427 197.596 19.1558C196.997 23.2087 196.596 27.2819 196.178 31.3568C195.058 42.2415 193.765 53.0995 192.381 63.9533C192.314 64.4803 192.247 65.0073 192.178 65.5503C192.046 66.5891 191.912 67.6278 191.777 68.6662C191.436 71.3273 191.139 73.9845 190.907 76.6575C190.856 77.205 190.806 77.7524 190.754 78.3164C190.66 79.3556 190.575 80.3956 190.501 81.4364C190.203 84.6528 189.436 86.4221 187.195 88.7405C185.773 88.7405 185.773 88.7405 183.849 88.0693C181.018 85.155 176.488 79.5095 176.488 75.316C176.047 75.316 175.605 75.316 175.15 75.316C174.899 76.1251 174.648 76.9341 174.389 77.7676C172.943 82.1106 171.087 86.2716 162.083 107.54C161.695 108.431 161.307 109.323 160.92 110.214C159.907 112.542 158.892 114.869 157.875 117.196C156.921 119.38 155.969 121.565 155.017 123.749C153.879 126.362 152.74 128.974 151.599 131.586C149.409 136.601 147.223 141.619 145.043 146.639C144.8 147.198 144.557 147.757 144.307 148.334C143.324 150.598 142.341 152.862 141.358 155.126C138.4 161.94 135.427 168.747 132.431 175.544C130.232 180.534 128.106 185.546 126.058 190.601C124.329 194.848 122.433 199.005 120.47 203.148C120.147 203.877 119.825 204.607 119.492 205.358C117.507 209.684 115.975 212.251 111.771 214.559C108.168 215.763 104.849 215.563 101.232 214.475C97.8019 212.49 96.0594 210.165 94.5348 206.604C93.402 203.992 92.2499 201.391 91.0819 198.795C86.9772 189.65 82.9113 180.493 79.0175 171.255C78.2677 169.479 77.5117 167.707 76.7552 165.934C76.2567 164.761 75.7583 163.587 75.2601 162.413C75.0278 161.87 74.7955 161.327 74.5561 160.767C72.9599 156.987 72.9599 156.987 72.9599 155.491C72.5182 155.491 72.0766 155.491 71.6216 155.491C71.3576 156.333 71.0937 157.175 70.8217 158.042C69.5651 161.817 67.9753 165.413 66.352 169.041C65.6936 170.527 65.0358 172.013 64.3785 173.499C64.0331 174.279 63.6878 175.059 63.332 175.862C61.6467 179.691 59.9928 183.533 58.3388 187.375C57.7808 188.669 57.2207 189.962 56.6597 191.255C55.0722 194.916 53.4932 198.578 51.9783 202.27C51.7455 202.825 51.5128 203.381 51.273 203.953C50.8629 204.933 50.4619 205.917 50.0736 206.906C48.6226 210.329 46.5465 212.506 43.5171 214.559C40.1071 215.699 36.1612 215.909 32.7192 214.748C28.866 212.668 26.7851 209.531 25.0762 205.605C24.7675 204.902 24.4587 204.199 24.1406 203.475C23.8137 202.716 23.4867 201.958 23.1498 201.176C22.8008 200.377 22.4519 199.579 22.0923 198.756C21.1617 196.624 20.2376 194.49 19.3156 192.355C18.7702 191.093 18.2236 189.832 17.6763 188.57C15.6918 183.996 13.7152 179.418 11.744 174.838C10.3672 171.64 8.98444 168.445 7.59984 165.25C6.99746 163.859 6.39513 162.468 5.79282 161.078C5.40575 160.184 5.01843 159.291 4.63083 158.398C4.09409 157.161 3.55849 155.924 3.02294 154.686C2.71737 153.981 2.41181 153.276 2.09698 152.55C0.436916 148.588 0.280528 144.986 0.691364 140.724C1.86238 138.375 1.86238 138.375 3.36797 136.697C3.79581 136.198 4.22365 135.7 4.66446 135.187C7.33945 132.91 9.82137 132.388 13.3295 132.507C17.6126 132.999 20.3427 134.532 23.0609 137.844C25.2125 140.992 26.6006 144.524 28.0848 148.024C28.6053 149.225 28.6053 149.225 29.1362 150.45C31.7784 156.572 34.3526 162.723 36.8256 168.916C37.4881 168.916 38.1505 168.916 38.8331 168.916C39.0686 168.306 39.304 167.696 39.5467 167.067C41.3721 162.387 43.3007 157.798 45.4596 153.26C47.7 148.503 49.7615 143.667 51.8397 138.836C52.2217 137.95 52.6038 137.064 52.9859 136.178C55.0494 131.391 55.0494 131.391 57.1047 126.601C57.8266 124.916 58.5544 123.234 59.2841 121.552C59.4833 121.082 59.6825 120.612 59.8877 120.128C61.3583 116.761 62.9613 114.126 65.9756 111.987C70.0855 110.563 74.4464 110.457 78.5222 112.113C84.1371 115.548 86.4139 123.565 88.8104 129.355C89.3346 130.605 89.8606 131.854 90.3869 133.103C90.7442 133.951 91.1009 134.799 91.4571 135.647C93.2056 139.807 95.0179 143.938 96.8402 148.066C100.089 155.439 103.27 162.84 106.418 170.258C108.027 168.643 108.587 167.19 109.484 165.087C109.827 164.288 110.17 163.488 110.523 162.664C110.897 161.783 111.271 160.902 111.645 160.022C112.037 159.106 112.43 158.19 112.822 157.274C113.636 155.374 114.449 153.473 115.261 151.572C117.04 147.405 118.839 143.247 120.637 139.088C120.992 138.266 121.347 137.444 121.702 136.623C124.978 129.037 128.273 121.46 131.568 113.883C143.309 86.2922 147.86 75.7726 152.399 65.2477C151.728 65.393 151.058 65.5384 150.368 65.6882C149.469 65.8772 148.571 66.066 147.673 66.2545C147.233 66.3506 146.794 66.4466 146.341 66.5456C139.025 68.0639 139.025 68.0639 136.339 66.4643C135.67 65.2477 135.67 65.2477 135.798 63.7086C136.46 61.4869 137.485 60.2173 138.974 58.4515C140.423 56.7151 141.777 55.0521 143.031 53.1656C143.472 53.1656 143.914 53.1656 144.369 53.1656C144.616 52.5855 144.616 52.5855 144.868 51.9936C145.842 50.2375 146.969 49.1323 148.426 47.7539C150.703 45.5276 152.757 43.2414 154.741 40.748C156.64 38.3662 158.583 36.1618 160.763 34.0358C163.478 31.3833 165.83 28.5416 168.197 25.5773C170.51 22.7639 172.98 20.107 175.45 17.4334C176.812 15.9526 178.145 14.4586 179.458 12.9341C181.605 10.4616 183.784 8.01993 185.982 5.59264C186.324 5.20852 186.667 4.8244 187.019 4.42865C189.645 1.54715 191.834 -0.573758 195.894 0.138939Z" fill="#E84814"/>
<path d="M171.939 26.9402C154.401 42.1792 143.272 52.1797 137.651 58.8468L142.148 61.2279L171.939 26.9402Z" fill="#E84814"/>
<path d="M205.831 100.414C230.247 100.414 242.963 113.449 242.963 137.486C242.963 160.169 230.586 174.558 207.526 174.558H178.363V203.822C178.363 210.284 173.086 215.523 166.578 215.523C160.07 215.523 154.795 210.284 154.795 203.822V149.04L176.482 100.414H205.831ZM178.702 153.737H201.592C213.461 153.906 219.396 148.319 219.396 137.147C219.396 125.975 213.799 120.389 202.778 120.389H178.702V153.737Z" fill="#07205F"/>
</svg>
