<svg width="18" height="16" viewBox="0 0 18 16" fill="none" xmlns="http://www.w3.org/2000/svg">
<path opacity="0.2" d="M6.88794 16C10.692 16 13.7759 12.9162 13.7759 9.11208C13.7759 5.30797 10.692 2.22414 6.88794 2.22414C3.08384 2.22414 0 5.30797 0 9.11208C0 12.9162 3.08384 16 6.88794 16Z" fill="#4BAE4F"/>
<path d="M6.96529 14.436L6.87792 14.2871C5.54342 12.0134 1.99713 7.18813 1.96131 7.13966L1.91016 7.07017L3.11836 5.87613L6.94286 8.54667C9.35086 5.42193 11.5974 3.27571 13.0628 2.02241C14.6658 0.651412 15.7092 0.0202519 15.7198 0.0142036L15.7435 0H17.7929L17.5972 0.174345C12.5623 4.65884 7.10514 14.1902 7.05079 14.286L6.96529 14.436Z" fill="#4BAE4F"/>
</svg>
