<svg width="18" height="18" viewBox="0 0 18 18" fill="none" xmlns="http://www.w3.org/2000/svg">
<g clip-path="url(#clip0_585_9706)">
<path fill-rule="evenodd" clip-rule="evenodd" d="M15.364 2.63545C18.8781 6.14962 18.8781 11.8492 15.364 15.3634C11.8498 18.8775 6.15022 18.8775 2.63604 15.3634C-0.878119 11.8492 -0.87814 6.14962 2.63604 2.63545C6.1502 -0.878713 11.8498 -0.878713 15.364 2.63545ZM3.47997 8.08632L8.08695 8.08635V3.47934C8.087 3.21502 8.30262 2.99939 8.5669 2.99939H9.4331C9.69738 2.99939 9.913 3.21502 9.91305 3.47934V8.08635L14.52 8.08632C14.7844 8.08641 15 8.30201 15 8.5663L15 9.43251C15 9.6968 14.7844 9.91243 14.5201 9.91246L9.91309 9.91249V14.5194C9.91302 14.7838 9.69742 14.9994 9.4331 14.9994H8.5669C8.30258 14.9994 8.08698 14.7838 8.08691 14.5194V9.91249L3.47994 9.91246C3.21559 9.91243 2.99997 9.6968 2.99999 9.43251L2.99999 8.5663C3.00001 8.30201 3.21561 8.08641 3.47997 8.08632Z" fill="#36DE3D"/>
</g>
<defs>
<clipPath id="clip0_585_9706">
<rect width="18" height="18" fill="white"/>
</clipPath>
</defs>
</svg>
