<svg width="18" height="16" viewBox="0 0 18 16" fill="none" xmlns="http://www.w3.org/2000/svg">
<path opacity="0.2" d="M6.88794 16C10.692 16 13.7759 12.9162 13.7759 9.11209C13.7759 5.30799 10.692 2.22415 6.88794 2.22415C3.08384 2.22415 0 5.30799 0 9.11209C0 12.9162 3.08384 16 6.88794 16Z" fill="#4BAE4F"/>
<path d="M6.96602 14.436L6.87866 14.2871C5.54415 12.0134 1.99787 7.18813 1.96204 7.13966L1.91089 7.07017L3.11909 5.87613L6.94359 8.54667C9.3516 5.42193 11.5981 3.27571 13.0635 2.02241C14.6665 0.651412 15.7099 0.0202519 15.7205 0.0142036L15.7442 0H17.7937L17.5979 0.174345C12.5631 4.65884 7.10588 14.1902 7.05152 14.286L6.96602 14.436Z" fill="#4BAE4F"/>
</svg>
