<svg width="24" height="19" viewBox="0 0 24 19" fill="none" xmlns="http://www.w3.org/2000/svg">
<path fill-rule="evenodd" clip-rule="evenodd" d="M14.4758 13.9531V14.3372C14.1409 14.1455 13.7568 14.0276 13.3419 14.0276C12.0913 14.0276 11.0742 15.0262 11.0742 16.2541C11.0742 17.4821 12.0913 18.4807 13.3419 18.4807C14.5926 18.4807 15.6097 17.4821 15.6097 16.2541V13.9252C15.5035 13.9436 15.3943 13.9531 15.2828 13.9531H14.4758ZM17.1593 9.00796L22.4884 7.5294V12.1107C22.1535 11.9189 21.7694 11.801 21.3545 11.801C20.1039 11.801 19.0868 12.7996 19.0868 14.0276C19.0868 15.2556 20.1039 16.2541 21.3545 16.2541C22.6052 16.2541 23.6223 15.2556 23.6223 14.0276V4.5647C23.6223 4.19653 23.2636 3.92834 22.8998 4.02924L17.1593 5.62443V9.00796Z" fill="#DE3636"/>
<path d="M11.0222 7.98314C11.0222 9.38865 9.85771 10.532 8.42622 10.532C6.99473 10.532 5.83067 9.38865 5.83067 7.98314C5.83067 6.57763 6.99473 5.43426 8.42622 5.43426C9.85771 5.43426 11.0222 6.57806 11.0222 7.98314ZM16.4745 4.36385V11.6033C16.4745 12.5684 15.6776 13.3509 14.6946 13.3509H2.15784C1.17488 13.3509 0.37793 12.5684 0.37793 11.6033V4.36385C0.37793 3.39874 1.17488 2.61625 2.15784 2.61625H4.34712V2.01158C4.34712 1.16705 5.04395 0.482422 5.90454 0.482422H10.9479C11.8085 0.482422 12.5053 1.16705 12.5053 2.01158V2.61581H14.6946C15.6776 2.61625 16.4745 3.39874 16.4745 4.36385ZM12.3571 7.98314C12.3571 5.85499 10.5937 4.12356 8.42622 4.12356C6.25918 4.12356 4.49574 5.85499 4.49574 7.98314C4.49574 10.1113 6.25918 11.8427 8.42622 11.8427C10.5937 11.8427 12.3571 10.1113 12.3571 7.98314Z" fill="#DE3636"/>
</svg>
