<svg width="208" height="40" viewBox="0 0 208 40" fill="none" xmlns="http://www.w3.org/2000/svg">
<path d="M66.8499 8.48943C66.8499 10.5154 66.2242 12.0715 64.9728 13.1505C63.723 14.2314 61.941 14.7709 59.6317 14.7709H57.7303V22.036H54.74V2.61716H60.005C62.2901 2.61716 64.0031 3.11446 65.1421 4.10541C66.2812 5.09636 66.8499 6.55708 66.8499 8.48759V8.48943ZM57.7303 12.1027H59.3188C60.8537 12.1027 61.9807 11.8201 62.698 11.2512C63.4154 10.686 63.7732 9.80151 63.7732 8.59586C63.7732 7.48013 63.4534 6.64884 62.8104 6.10015C62.1691 5.54962 61.1666 5.27619 59.808 5.27619H57.732V12.1027H57.7303Z" fill="#282828"/>
<path d="M69.9917 22.0361V2.61725H72.982V22.0361H69.9917Z" fill="#282828"/>
<path d="M87.644 22.0362H77.2971V2.61731H87.644V5.3002H80.2874V10.5871H87.1808V13.2424H80.2874V19.3386H87.644V22.0362Z" fill="#282828"/>
<path d="M100.218 14.2792V22.0361H97.228V2.61725H102.395C104.756 2.61725 106.503 3.08703 107.637 4.02659C108.773 4.96432 109.338 6.38101 109.338 8.27665C109.338 10.6953 108.154 12.4166 105.786 13.4443L110.952 22.038H107.551L103.171 14.2811H100.218V14.2792ZM100.218 11.6495H102.294C103.687 11.6495 104.695 11.3743 105.323 10.8256C105.948 10.2751 106.261 9.46212 106.261 8.38125C106.261 7.30039 105.924 6.49662 105.247 6.01766C104.572 5.5387 103.553 5.30014 102.196 5.30014H100.22V11.6495H100.218Z" fill="#282828"/>
<path d="M123.435 22.0362H113.09V2.61731H123.435V5.3002H116.08V10.5871H122.973V13.2424H116.08V19.3386H123.435V22.0362Z" fill="#282828"/>
<path d="M134.358 11.5027H141.089V21.2506C139.988 21.6305 138.932 21.9021 137.919 22.0617C136.904 22.2196 135.81 22.3003 134.635 22.3003C131.867 22.3003 129.731 21.4305 128.231 19.6908C126.728 17.9511 125.978 15.4958 125.978 12.3266C125.978 9.15743 126.825 6.7553 128.516 4.98811C130.21 3.22276 132.541 2.34009 135.511 2.34009C137.419 2.34009 139.231 2.73096 140.94 3.50904L139.889 6.15156C138.406 5.4267 136.92 5.06335 135.435 5.06335C133.482 5.06335 131.94 5.71297 130.806 7.01588C129.67 8.31879 129.105 10.097 129.105 12.356C129.105 14.7269 129.615 16.5326 130.637 17.7676C131.658 19.0027 133.127 19.6192 135.046 19.6192C136.012 19.6192 137.048 19.4908 138.149 19.2339V14.2259H134.356V11.5027H134.358Z" fill="#282828"/>
<path d="M144.968 22.0362V2.61731H147.958V22.0362H144.968Z" fill="#282828"/>
<path d="M162.821 16.7621C162.821 18.4889 162.232 19.845 161.056 20.8286C159.879 21.8104 158.258 22.3022 156.189 22.3022C154.12 22.3022 152.428 21.9609 151.109 21.2782V18.276C151.944 18.6926 152.829 19.0211 153.767 19.2596C154.706 19.4964 155.581 19.6175 156.388 19.6175C157.574 19.6175 158.446 19.3789 159.01 18.9018C159.572 18.4228 159.853 17.7806 159.853 16.975C159.853 16.2501 159.596 15.6353 159.077 15.1289C158.561 14.6242 157.494 14.0278 155.876 13.336C154.206 12.6185 153.031 11.8 152.348 10.8788C151.664 9.95759 151.321 8.85103 151.321 7.55913C151.321 5.93692 151.864 4.66337 152.948 3.73298C154.03 2.80259 155.487 2.33832 157.313 2.33832C159.138 2.33832 160.808 2.74571 162.543 3.56048L161.591 6.14979C159.964 5.42493 158.514 5.06158 157.238 5.06158C156.269 5.06158 155.537 5.28546 155.036 5.73322C154.537 6.17915 154.284 6.77005 154.284 7.50592C154.284 8.01056 154.386 8.44181 154.585 8.79965C154.784 9.15933 155.114 9.49698 155.574 9.81629C156.032 10.1356 156.858 10.5558 158.051 11.077C159.394 11.6716 160.377 12.2239 161.003 12.7377C161.629 13.2516 162.088 13.8315 162.381 14.4774C162.671 15.1252 162.818 15.8867 162.818 16.7621H162.821Z" fill="#282828"/>
<path d="M172.167 22.0361H169.177V5.33865H163.797V2.61539H177.546V5.33865H172.167V22.0343V22.0361Z" fill="#282828"/>
<path d="M190.182 22.0362H179.835V2.61731H190.182V5.3002H182.826V10.5871H189.719V13.2424H182.826V19.3386H190.182V22.0362Z" fill="#282828"/>
<path d="M196.613 14.2792V22.0361H193.623V2.61725H198.789C201.15 2.61725 202.898 3.08703 204.032 4.02659C205.167 4.96432 205.733 6.38101 205.733 8.27665C205.733 10.6953 204.55 12.4166 202.181 13.4443L207.347 22.038H203.945L199.565 14.2811H196.613V14.2792ZM196.613 11.6495H198.689C200.082 11.6495 201.092 11.3743 201.716 10.8256C202.341 10.2751 202.654 9.46212 202.654 8.38125C202.654 7.30039 202.315 6.49662 201.641 6.01766C200.965 5.5387 199.947 5.30014 198.587 5.30014H196.611V11.6495H196.613Z" fill="#282828"/>
<path d="M6.97437 0.0182517C17.1719 -0.00608388 27.3709 -0.00608388 37.5684 0.0182517C37.5311 5.03441 37.6543 10.0582 37.5182 15.0774C36.6185 16.2014 35.2891 16.8219 34.1343 17.6113C34.1215 12.948 34.226 8.27865 34.0799 3.61383C25.0471 3.66706 16.0086 3.64425 6.97437 3.62447V0.0182517Z" fill="#C12026"/>
<path d="M43.5452 14.7139C44.1254 14.326 44.7285 13.9716 45.3446 13.6522C36.339 22.3202 27.0956 30.7297 17.9468 39.2395C15.3164 34.7679 12.7405 30.2551 10.2563 25.6922C12.9225 27.6467 15.3623 29.919 17.9382 32.0043C26.4967 26.2778 35.0095 20.4753 43.5452 14.7154V14.7139Z" fill="#C12026"/>
<path d="M34.1657 27.7699C35.2889 26.7828 36.4178 25.7972 37.5539 24.8329C37.5911 29.8856 37.5682 34.9428 37.5682 40H34.1757C34.1256 35.9223 34.1385 31.8491 34.1671 27.7699H34.1657Z" fill="#C12026"/>
<path d="M0.0456088 7.50906C10.2345 7.52732 20.4249 7.51363 30.6181 7.51819C30.6095 8.69694 30.6038 9.87874 30.5952 11.0621C21.5338 11.0423 12.468 10.9601 3.41231 11.1062C3.45816 20.7354 3.44383 30.3632 3.41661 39.994C2.28339 39.9985 1.1559 39.9985 0.0284171 39.994C0.00836016 29.1677 -0.0317537 18.3353 0.0456088 7.50906Z" fill="#C12026"/>
<path d="M6.97437 15.0485C14.8582 15.0455 22.7406 14.9861 30.6186 15.0789C30.61 16.2607 30.61 17.4456 30.6186 18.6274C22.7406 18.7186 14.8582 18.6608 6.97437 18.6547V15.047V15.0485Z" fill="#C12026"/>
<path d="M57.9397 31.0816C58.6661 31.0816 59.2312 31.3458 59.6331 31.8722C60.035 32.3985 60.237 33.1458 60.237 34.1097C60.237 35.0735 60.035 35.823 59.629 36.358C59.223 36.893 58.6599 37.1594 57.9397 37.1594C57.5786 37.1594 57.2501 37.0879 56.9523 36.9471C56.6544 36.8063 56.4035 36.5897 56.2035 36.2952H56.1423L55.9648 37.0511H55.365V28.712H56.2035V30.7372C56.2035 31.1921 56.1892 31.5993 56.1627 31.9588H56.2035C56.5932 31.3718 57.1726 31.0794 57.9397 31.0794V31.0816ZM57.8194 31.8267C57.2461 31.8267 56.8339 32 56.583 32.3487C56.3321 32.6974 56.2035 33.2844 56.2035 34.1097C56.2035 34.9349 56.332 35.5262 56.5932 35.8815C56.8523 36.2367 57.2685 36.4143 57.8398 36.4143C58.3539 36.4143 58.7375 36.215 58.9904 35.8165C59.2434 35.4179 59.3699 34.8461 59.3699 34.0988C59.3699 33.3516 59.2434 32.7646 58.9904 32.3899C58.7375 32.0151 58.3478 31.8267 57.8194 31.8267Z" fill="#C12026" stroke="#C12026" stroke-width="0.25" stroke-miterlimit="10"/>
<path d="M60.8235 31.179H61.7212L62.9331 34.5299C63.1983 35.2945 63.3635 35.8468 63.4288 36.1869H63.4696C63.5125 36.0049 63.6043 35.693 63.7451 35.2511C63.8838 34.8093 64.3408 33.4534 65.1161 31.1812H66.0138L63.6369 37.8698C63.4003 38.5305 63.1269 39.0005 62.8106 39.2778C62.4965 39.555 62.1088 39.6936 61.6518 39.6936C61.3968 39.6936 61.1438 39.6633 60.8949 39.6027V38.89C61.0805 38.9334 61.2866 38.955 61.5151 38.955C62.0905 38.955 62.5005 38.6128 62.7474 37.9262L63.0555 37.0901L60.8235 31.1834V31.179Z" fill="#C12026" stroke="#C12026" stroke-width="0.25" stroke-miterlimit="10"/>
<path d="M74.127 31.1792V31.7423L73.1028 31.8701C73.1966 31.9957 73.2803 32.1582 73.3558 32.3596C73.4292 32.5611 73.4659 32.7885 73.4659 33.0441C73.4659 33.6203 73.2803 34.0794 72.911 34.4217C72.5417 34.7639 72.0317 34.9372 71.387 34.9372C71.2217 34.9372 71.0667 34.922 70.9218 34.8939C70.5648 35.0931 70.3873 35.3466 70.3873 35.6498C70.3873 35.8101 70.4505 35.9292 70.575 36.0072C70.6994 36.0852 70.9136 36.122 71.2156 36.122H72.1949C72.7947 36.122 73.2537 36.2563 73.5761 36.5249C73.8984 36.7935 74.0576 37.1833 74.0576 37.6923C74.0576 38.3422 73.8128 38.8382 73.3211 39.1804C72.8294 39.5226 72.1133 39.6916 71.1707 39.6916C70.4464 39.6916 69.8895 39.5486 69.4977 39.2627C69.106 38.9768 68.9102 38.5739 68.9102 38.0519C68.9102 37.6945 69.0183 37.3848 69.2325 37.1249C69.4488 36.8649 69.7507 36.6873 70.1404 36.5942C69.9996 36.527 69.8813 36.4209 69.7854 36.2779C69.6895 36.135 69.6406 35.9682 69.6406 35.7798C69.6406 35.5653 69.6936 35.3769 69.8017 35.2166C69.9099 35.0563 70.0792 34.9004 70.3118 34.7509C70.0261 34.6253 69.7936 34.413 69.612 34.1141C69.4324 33.813 69.3427 33.4708 69.3427 33.0853C69.3427 32.4419 69.5243 31.9459 69.8874 31.5972C70.2506 31.2485 70.7667 31.0752 71.4318 31.0752C71.7216 31.0752 71.9827 31.112 72.2153 31.1835H74.129L74.127 31.1792ZM69.714 38.0389C69.714 38.3573 69.8405 38.5977 70.0935 38.7624C70.3465 38.927 70.7076 39.0093 71.1789 39.0093C71.8827 39.0093 72.403 38.8966 72.7417 38.6736C73.0803 38.4505 73.2497 38.1472 73.2497 37.766C73.2497 37.4476 73.1579 37.2267 72.9722 37.1032C72.7865 36.9797 72.4397 36.9191 71.9276 36.9191H70.9238C70.5444 36.9191 70.2465 37.0166 70.0363 37.2093C69.8242 37.4021 69.7181 37.6794 69.7181 38.0389H69.714ZM70.169 33.0593C70.169 33.4708 70.2791 33.7805 70.4974 33.9928C70.7157 34.2029 71.0218 34.309 71.4114 34.309C72.2296 34.309 72.6376 33.8867 72.6376 33.0441C72.6376 32.2015 72.2234 31.7207 71.3951 31.7207C71.0014 31.7207 70.6994 31.8333 70.4872 32.0586C70.2751 32.2838 70.169 32.6174 70.169 33.0614V33.0593Z" fill="#C12026" stroke="#C12026" stroke-width="0.25" stroke-miterlimit="10"/>
<path d="M77.5993 37.1594C76.7811 37.1594 76.1364 36.8952 75.6631 36.3667C75.1898 35.8381 74.9531 35.1039 74.9531 34.1638C74.9531 33.2238 75.1735 32.4657 75.6121 31.9068C76.0508 31.348 76.6404 31.0708 77.381 31.0708C78.0746 31.0708 78.6235 31.3134 79.0274 31.7964C79.4314 32.2794 79.6334 32.9184 79.6334 33.7133V34.2765H75.8223C75.8386 34.9652 76.0038 35.4894 76.3139 35.8468C76.6241 36.2042 77.0627 36.3818 77.6299 36.3818C78.2256 36.3818 78.8152 36.2497 79.3967 35.9854V36.7782C79.1009 36.9147 78.8193 37.0121 78.5561 37.0706C78.2909 37.1291 77.9726 37.1594 77.5993 37.1594ZM77.3728 31.8159C76.928 31.8159 76.5751 31.9697 76.3099 32.2772C76.0467 32.5848 75.8896 33.0093 75.8427 33.553H78.7357C78.7357 32.992 78.6173 32.5631 78.3827 32.2642C78.1481 31.9653 77.8115 31.8159 77.3728 31.8159Z" fill="#C12026" stroke="#C12026" stroke-width="0.25" stroke-miterlimit="10"/>
<path d="M84.8499 37.0533V33.2541C84.8499 32.7754 84.7479 32.418 84.5419 32.1819C84.3358 31.9458 84.0155 31.8289 83.5769 31.8289C82.9974 31.8289 82.5731 31.9957 82.3038 32.3271C82.0345 32.6585 81.8998 33.2086 81.8998 33.9732V37.0554H81.0613V31.1812H81.7427L81.8794 31.9848H81.9202C82.0916 31.6946 82.3323 31.4715 82.6424 31.3112C82.9526 31.1531 83.2973 31.0729 83.6768 31.0729C84.344 31.0729 84.8438 31.2441 85.1805 31.5841C85.5171 31.9263 85.6844 32.4722 85.6844 33.2216V37.0533H84.8459H84.8499Z" fill="#C12026" stroke="#C12026" stroke-width="0.25" stroke-miterlimit="10"/>
<path d="M89.7458 37.1594C88.9276 37.1594 88.2829 36.8952 87.8096 36.3667C87.3363 35.8381 87.0996 35.1039 87.0996 34.1638C87.0996 33.2238 87.3199 32.4657 87.7586 31.9068C88.1972 31.348 88.7869 31.0708 89.5275 31.0708C90.2211 31.0708 90.7699 31.3134 91.1739 31.7964C91.5779 32.2794 91.7798 32.9184 91.7798 33.7133V34.2765H87.9687C87.9851 34.9652 88.1503 35.4894 88.4604 35.8468C88.7705 36.2042 89.2092 36.3818 89.7764 36.3818C90.3721 36.3818 90.9617 36.2497 91.5432 35.9854V36.7782C91.2474 36.9147 90.9658 37.0121 90.7026 37.0706C90.4374 37.1291 90.1191 37.1594 89.7458 37.1594ZM89.5193 31.8159C89.0745 31.8159 88.7216 31.9697 88.4564 32.2772C88.1932 32.5848 88.0361 33.0093 87.9891 33.553H90.8822C90.8822 32.992 90.7638 32.5631 90.5292 32.2642C90.2946 31.9653 89.9579 31.8159 89.5193 31.8159Z" fill="#C12026" stroke="#C12026" stroke-width="0.25" stroke-miterlimit="10"/>
<path d="M94.9956 36.4251C95.1445 36.4251 95.2873 36.4143 95.424 36.3904C95.5627 36.3666 95.6708 36.3428 95.7525 36.319V36.9991C95.6627 37.0446 95.528 37.0836 95.3505 37.1139C95.173 37.1442 95.0139 37.1594 94.8731 37.1594C93.802 37.1594 93.2675 36.5616 93.2675 35.3638V31.87H92.4739V31.4411L93.2675 31.0707L93.6205 29.8166H94.106V31.179H95.7117V31.87H94.106V35.3269C94.106 35.68 94.1856 35.9529 94.3427 36.1413C94.5018 36.332 94.7181 36.4251 94.9935 36.4251H94.9956Z" fill="#C12026" stroke="#C12026" stroke-width="0.25" stroke-miterlimit="10"/>
<path d="M99.1969 37.1593C98.3788 37.1593 97.7341 36.8951 97.2608 36.3666C96.7874 35.8381 96.5508 35.1038 96.5508 34.1638C96.5508 33.2237 96.7711 32.4656 97.2098 31.9068C97.6484 31.3501 98.238 31.0707 98.9786 31.0707C99.6723 31.0707 100.221 31.3133 100.625 31.7963C101.029 32.2793 101.231 32.9183 101.231 33.7132V34.2764H97.4199C97.4362 34.9652 97.6015 35.4894 97.9116 35.8467C98.2238 36.2041 98.6604 36.3818 99.2276 36.3818C99.8233 36.3818 100.413 36.2496 100.994 35.9854V36.7781C100.699 36.9146 100.417 37.0121 100.154 37.0705C99.8886 37.129 99.5703 37.1593 99.1969 37.1593ZM98.9705 31.8158C98.5257 31.8158 98.1728 31.9696 97.9075 32.2772C97.6423 32.5847 97.4872 33.0093 97.4403 33.553H100.333C100.333 32.992 100.215 32.5631 99.9804 32.2642C99.7437 31.9653 99.4071 31.8158 98.9705 31.8158Z" fill="#C12026" stroke="#C12026" stroke-width="0.25" stroke-miterlimit="10"/>
<path d="M104.873 37.1594C104.071 37.1594 103.451 36.8973 103.012 36.3753C102.573 35.8511 102.353 35.1104 102.353 34.153C102.353 33.1956 102.575 32.4115 103.022 31.8744C103.469 31.3394 104.104 31.0708 104.928 31.0708C105.193 31.0708 105.46 31.1011 105.726 31.1617C105.991 31.2224 106.201 31.2939 106.352 31.3762L106.095 32.1321C105.909 32.0541 105.707 31.9892 105.489 31.9372C105.271 31.8852 105.077 31.8592 104.907 31.8592C103.783 31.8592 103.22 32.6195 103.22 34.1422C103.22 34.8634 103.357 35.4179 103.632 35.8035C103.906 36.189 104.314 36.3818 104.852 36.3818C105.313 36.3818 105.787 36.2757 106.27 36.0656V36.854C105.899 37.0576 105.434 37.1594 104.871 37.1594H104.873Z" fill="#C12026" stroke="#C12026" stroke-width="0.25" stroke-miterlimit="10"/>
<path d="M111.37 37.0532V33.2541C111.37 32.7754 111.268 32.418 111.062 32.1819C110.856 31.9458 110.535 31.8288 110.097 31.8288C109.515 31.8288 109.089 31.9978 108.822 32.3335C108.554 32.6692 108.42 33.2194 108.42 33.984V37.0554H107.581V28.7163H108.42V31.2418C108.42 31.5451 108.405 31.7985 108.379 31.9978H108.43C108.595 31.7162 108.83 31.4931 109.134 31.3306C109.438 31.1682 109.787 31.0859 110.176 31.0859C110.854 31.0859 111.36 31.257 111.698 31.5971C112.037 31.9371 112.206 32.4808 112.206 33.2237V37.0554H111.368L111.37 37.0532Z" fill="#C12026" stroke="#C12026" stroke-width="0.25" stroke-miterlimit="10"/>
<path d="M120.185 35.4503C120.185 35.9961 119.993 36.4185 119.61 36.7153C119.226 37.012 118.688 37.1593 117.994 37.1593C117.259 37.1593 116.688 37.0358 116.278 36.7889V35.9637C116.543 36.1066 116.829 36.2192 117.133 36.3016C117.437 36.3839 117.731 36.425 118.014 36.425C118.451 36.425 118.787 36.3514 119.024 36.2019C119.259 36.0546 119.377 35.8272 119.377 35.524C119.377 35.2944 119.283 35.0994 119.098 34.937C118.91 34.7745 118.547 34.5817 118.004 34.3608C117.49 34.1572 117.123 33.9796 116.906 33.828C116.69 33.6764 116.527 33.5031 116.421 33.3103C116.315 33.1175 116.262 32.8858 116.262 32.6193C116.262 32.1407 116.445 31.7616 116.813 31.4865C117.18 31.2114 117.682 31.0706 118.322 31.0706C118.918 31.0706 119.5 31.1984 120.069 31.4562L119.771 32.1796C119.216 31.9371 118.712 31.8158 118.261 31.8158C117.863 31.8158 117.565 31.8829 117.363 32.015C117.161 32.1472 117.061 32.3291 117.061 32.5609C117.061 32.719 117.1 32.8533 117.176 32.9637C117.251 33.0742 117.374 33.1803 117.541 33.28C117.708 33.3796 118.033 33.5247 118.51 33.7132C119.167 33.9666 119.61 34.2222 119.84 34.4799C120.071 34.7377 120.187 35.0604 120.187 35.4503H120.185Z" fill="#C12026" stroke="#C12026" stroke-width="0.25" stroke-miterlimit="10"/>
<path d="M126.325 34.1097C126.325 35.0671 126.099 35.8143 125.644 36.3537C125.189 36.8908 124.562 37.1594 123.761 37.1594C123.267 37.1594 122.826 37.0359 122.443 36.789C122.059 36.5421 121.763 36.189 121.553 35.7277C121.345 35.2663 121.241 34.727 121.241 34.1097C121.241 33.1523 121.467 32.405 121.918 31.8722C122.369 31.3372 122.996 31.0708 123.797 31.0708C124.599 31.0708 125.187 31.3437 125.642 31.8917C126.097 32.4397 126.325 33.1783 126.325 34.1118V34.1097ZM122.11 34.1097C122.11 34.8591 122.251 35.4309 122.534 35.8252C122.818 36.2194 123.232 36.4143 123.781 36.4143C124.33 36.4143 124.746 36.2194 125.03 35.8273C125.313 35.4353 125.456 34.8634 125.456 34.1097C125.456 33.3559 125.313 32.7949 125.03 32.4072C124.746 32.0195 124.326 31.8267 123.771 31.8267C123.216 31.8267 122.808 32.0173 122.528 32.4007C122.249 32.7841 122.11 33.3537 122.11 34.1097Z" fill="#C12026" stroke="#C12026" stroke-width="0.25" stroke-miterlimit="10"/>
<path d="M128.631 37.0532H127.792V28.7141H128.631V37.0532Z" fill="#C12026" stroke="#C12026" stroke-width="0.25" stroke-miterlimit="10"/>
<path d="M131.196 31.1791V34.9891C131.196 35.4678 131.298 35.8252 131.504 36.0613C131.71 36.2974 132.03 36.4143 132.469 36.4143C133.049 36.4143 133.471 36.2454 133.738 35.9097C134.005 35.5739 134.14 35.0259 134.14 34.2635V31.1769H134.979V37.0511H134.287L134.167 36.2627H134.122C133.95 36.553 133.712 36.7739 133.408 36.9277C133.104 37.0815 132.755 37.1573 132.365 37.1573C131.692 37.1573 131.188 36.9883 130.853 36.6483C130.519 36.3082 130.351 35.7645 130.351 35.0194V31.1769H131.2L131.196 31.1791Z" fill="#C12026" stroke="#C12026" stroke-width="0.25" stroke-miterlimit="10"/>
<path d="M138.542 36.4251C138.691 36.4251 138.834 36.4143 138.97 36.3904C139.109 36.3666 139.217 36.3428 139.299 36.319V36.9991C139.207 37.0446 139.074 37.0836 138.897 37.1139C138.719 37.1442 138.56 37.1594 138.419 37.1594C137.348 37.1594 136.814 36.5616 136.814 35.3638V31.87H136.022V31.4411L136.814 31.0707L137.167 29.8166H137.652V31.179H139.258V31.87H137.652V35.3269C137.652 35.68 137.732 35.9529 137.889 36.1413C138.048 36.332 138.264 36.4251 138.54 36.4251H138.542Z" fill="#C12026" stroke="#C12026" stroke-width="0.25" stroke-miterlimit="10"/>
<path d="M140.334 29.587C140.334 29.3834 140.381 29.234 140.475 29.1387C140.568 29.0434 140.687 28.9957 140.827 28.9957C140.968 28.9957 141.078 29.0434 141.176 29.1408C141.274 29.2383 141.323 29.3856 141.323 29.5849C141.323 29.7842 141.274 29.9336 141.176 30.0332C141.078 30.1307 140.962 30.1805 140.827 30.1805C140.687 30.1805 140.568 30.1307 140.475 30.0332C140.381 29.9358 140.334 29.7863 140.334 29.5849V29.587ZM141.242 37.0533H140.403V31.1791H141.242V37.0533Z" fill="#C12026" stroke="#C12026" stroke-width="0.25" stroke-miterlimit="10"/>
<path d="M147.796 34.1097C147.796 35.0671 147.57 35.8143 147.115 36.3537C146.66 36.8908 146.034 37.1594 145.232 37.1594C144.738 37.1594 144.297 37.0359 143.914 36.789C143.53 36.5421 143.234 36.189 143.024 35.7277C142.816 35.2663 142.712 34.727 142.712 34.1097C142.712 33.1523 142.939 32.405 143.39 31.8722C143.84 31.3372 144.467 31.0708 145.269 31.0708C146.07 31.0708 146.658 31.3437 147.113 31.8917C147.568 32.4397 147.796 33.1783 147.796 34.1118V34.1097ZM143.581 34.1097C143.581 34.8591 143.722 35.4309 144.006 35.8252C144.289 36.2194 144.703 36.4143 145.252 36.4143C145.801 36.4143 146.217 36.2194 146.501 35.8273C146.784 35.4353 146.927 34.8634 146.927 34.1097C146.927 33.3559 146.784 32.7949 146.501 32.4072C146.217 32.0195 145.797 31.8267 145.242 31.8267C144.687 31.8267 144.279 32.0173 144 32.4007C143.72 32.7841 143.581 33.3537 143.581 34.1097Z" fill="#C12026" stroke="#C12026" stroke-width="0.25" stroke-miterlimit="10"/>
<path d="M153.049 37.0533V33.2541C153.049 32.7754 152.947 32.4181 152.741 32.182C152.535 31.9459 152.215 31.8289 151.776 31.8289C151.197 31.8289 150.773 31.9957 150.503 32.3271C150.234 32.6585 150.099 33.2086 150.099 33.9732V37.0555H149.261V31.1813H149.942L150.079 31.9849H150.12C150.291 31.6946 150.532 31.4715 150.842 31.3112C151.152 31.1509 151.497 31.073 151.876 31.073C152.543 31.073 153.043 31.2441 153.38 31.5841C153.717 31.9264 153.884 32.4722 153.884 33.2216V37.0533H153.045H153.049Z" fill="#C12026" stroke="#C12026" stroke-width="0.25" stroke-miterlimit="10"/>
<path d="M159.182 35.4504C159.182 35.9963 158.99 36.4186 158.606 36.7154C158.223 37.0121 157.684 37.1594 156.99 37.1594C156.256 37.1594 155.685 37.0359 155.275 36.789V35.9638C155.54 36.1067 155.825 36.2194 156.129 36.3017C156.433 36.384 156.727 36.4251 157.011 36.4251C157.447 36.4251 157.784 36.3515 158.021 36.202C158.255 36.0547 158.374 35.8273 158.374 35.5241C158.374 35.2945 158.28 35.0995 158.094 34.9371C157.906 34.7746 157.543 34.5819 157.001 34.3609C156.486 34.1573 156.119 33.9797 155.903 33.8281C155.687 33.6765 155.524 33.5032 155.417 33.3104C155.311 33.1176 155.258 32.8859 155.258 32.6195C155.258 32.1408 155.442 31.7617 155.809 31.4866C156.176 31.2116 156.678 31.0708 157.319 31.0708C157.915 31.0708 158.496 31.1986 159.065 31.4563L158.767 32.1798C158.213 31.9372 157.709 31.8159 157.258 31.8159C156.86 31.8159 156.562 31.883 156.36 32.0151C156.158 32.1473 156.058 32.3292 156.058 32.561C156.058 32.7191 156.097 32.8534 156.172 32.9639C156.248 33.0743 156.37 33.1805 156.538 33.2801C156.705 33.3797 157.029 33.5249 157.507 33.7133C158.164 33.9667 158.606 34.2223 158.837 34.4801C159.067 34.7378 159.184 35.0606 159.184 35.4504H159.182Z" fill="#C12026" stroke="#C12026" stroke-width="0.25" stroke-miterlimit="10"/>
</svg>
